<svg viewBox="0 0 320 100" xmlns="http://www.w3.org/2000/svg" style="background: transparent;">
  <defs>
    <clipPath id="flagClip">
      <rect x="0" y="0" width="32" height="32" rx="4"/>
    </clipPath>
  </defs>
  <g transform="translate(0, 14)">
    <rect x="0" y="0" width="32" height="32" rx="4" fill="#1a1a2e"/>
    <rect x="0" y="0" width="32" height="11" rx="4" fill="#B22234" clip-path="url(#flagClip)"/>
    <rect x="0" y="0" width="32" height="5" fill="#B22234"/>
    <rect x="0" y="5" width="32" height="3" fill="#fff"/>
    <rect x="0" y="8" width="32" height="3" fill="#B22234"/>
    <rect x="0" y="11" width="32" height="3" fill="#fff"/>
    <rect x="0" y="14" width="32" height="3" fill="#B22234"/>
    <rect x="0" y="17" width="32" height="3" fill="#fff"/>
    <rect x="0" y="20" width="32" height="3" fill="#B22234"/>
    <rect x="0" y="23" width="32" height="3" fill="#fff"/>
    <rect x="0" y="26" width="32" height="3" fill="#B22234"/>
    <rect x="0" y="29" width="32" height="3" fill="#fff"/>
    <rect x="0" y="0" width="14" height="18" rx="2" fill="#3C3B6E"/>
    <circle cx="3" cy="3.5" r="1" fill="#fff"/>
    <circle cx="7" cy="3.5" r="1" fill="#fff"/>
    <circle cx="11" cy="3.5" r="1" fill="#fff"/>
    <circle cx="3" cy="7" r="1" fill="#fff"/>
    <circle cx="7" cy="7" r="1" fill="#fff"/>
    <circle cx="11" cy="7" r="1" fill="#fff"/>
    <circle cx="3" cy="10.5" r="1" fill="#fff"/>
    <circle cx="7" cy="10.5" r="1" fill="#fff"/>
    <circle cx="11" cy="10.5" r="1" fill="#fff"/>
    <circle cx="3" cy="14" r="1" fill="#fff"/>
    <circle cx="7" cy="14" r="1" fill="#fff"/>
    <circle cx="11" cy="14" r="1" fill="#fff"/>
  </g>
  <text x="44" y="40" font-family="Arial Black, Arial, sans-serif" font-weight="900" font-size="26" letter-spacing="-0.5">
    <tspan fill="#ffffff">jobs</tspan><tspan fill="#F97316">in</tspan><tspan fill="#ffffff">usa</tspan>
  </text>
  <text x="44" y="58" font-family="Arial, sans-serif" font-size="10" fill="#9CA3AF" letter-spacing="2" font-weight="400">JOB SEARCH PLATFORM</text>
</svg>
